#!OML:ASF C:\ViconDB\ViconDB\414\Spring2016\041811\Spring2016.ASF
:FULLY-SPECIFIED
:DEGREES
309
root 7.62043 22.0204 -48.8263 -177.277 -3.12874 179.737
lowerback 13.0869 0.306789 -1.75566
upperback 1.4376 -0.0572777 -0.516912
thorax -5.8272 -0.0690153 0.466123
lowerneck -7.32159 -5.02461 -17.7309
upperneck 16.7908 -9.82361 21.566
head 8.29402 -4.73549 9.4693
rclavicle 9.0944e-015 5.96354e-016
rhumerus 8.07213 7.3754 -41.3906
rradius 122.699
rwrist -11.6236
rhand -36.7693 -26.6999
rfingers 7.12502
rthumb -9.85208 -56.4494
lclavicle 9.0944e-015 5.96354e-016
lhumerus -28.4393 -19.8608 49.7696
lradius 92.6046
lwrist 1.51894
lhand -31.9861 10.3615
lfingers 7.12502
lthumb -5.23534 40.2769
rfemur -15.618 -19.1881 17.8971
rtibia 22.7168
rfoot -28.144 10.1812
rtoes -15.4949
lfemur -12.2912 1.02984 -12.6994
ltibia 15.4123
lfoot 8.63853 7.50547
ltoes -5.81403
310
root 7.6215 21.9437 -49.0866 -177.095 -3.12596 179.692
lowerback 13.6035 0.284867 -1.75515
upperback 1.69371 -0.134203 -0.62125
thorax -5.84164 -0.122927 0.371674
lowerneck -7.62914 -5.06531 -17.3638
upperneck 16.6224 -9.83045 21.5428
head 8.28172 -4.69131 9.37695
rclavicle -2.98177e-016 1.2921e-014
rhumerus 8.07213 7.3754 -41.3906
rradius 122.699
rwrist -11.6236
rhand -36.7693 -26.6999
rfingers 7.12502
rthumb -9.85208 -56.4494
lclavicle -2.98177e-016 1.2921e-014
lhumerus -31.4445 -20.5597 51.2118
lradius 89.3668
lwrist 1.05867
lhand -32.3249 7.49018
lfingers 7.12502
lthumb -5.56248 37.3972
rfemur -16.8921 -19.4098 18.1925
rtibia 22.0358
rfoot -28.9357 10.589
rtoes -14.9797
lfemur -12.9473 0.816356 -12.6493
ltibia 14.0239
lfoot 8.81804 7.80749
ltoes -6.36168
311
root 7.62388 21.8402 -49.3479 -176.976 -3.10214 179.639
lowerback 14.2791 0.069104 -1.86968
upperback 2.52036 -0.599048 -1.36108
thorax -5.33913 -0.410219 -0.251463
lowerneck -10.0922 -5.29414 -14.6508
upperneck 16.7551 -10.2296 21.1578
head 8.73243 -4.59441 8.62723
rclavicle 2.28602e-015 -1.90833e-014
rhumerus 8.07213 7.3754 -41.3906
rradius 122.699
rwrist -11.6236
rhand -36.7693 -26.6999
rfingers 7.12502
rthumb -9.85208 -56.4494
lclavicle 2.28602e-015 -1.90833e-014
lhumerus -33.2234 -20.306 50.6411
lradius 85.9089
lwrist 0.755295
lhand -32.7212 6.68145
lfingers 7.12502
lthumb -5.94508 36.578
rfemur -18.1539 -19.7609 18.5389
rtibia 21.4443
rfoot -29.3014 11.1071
rtoes -14.7631
lfemur -13.5953 0.54062 -12.5718
ltibia 12.7548
lfoot 8.95931 8.43778
ltoes -6.08132
312
root 7.62745 21.714 -49.6129 -176.796 -3.08719 179.571
lowerback 13.3024 -0.210545 -1.34488
upperback 3.01682 -0.871506 -1.19241
thorax -4.28325 -0.568256 -0.331572
lowerneck -8.35911 -4.86251 -16.5956
upperneck 15.5634 -9.32634 21.8649
head 7.95173 -4.32405 9.36137
rclavicle -3.18055e-015 -3.02153e-014
rhumerus 8.07213 7.3754 -41.3906
rradius 122.699
rwrist -11.6236
rhand -36.7693 -26.6999
rfingers 7.12502
rthumb -9.85208 -56.4494
lclavicle -3.18055e-015 -3.02153e-014
lhumerus -36.9587 -19.7514 53.1306
lradius 82.626
lwrist 0.995238
lhand -33.2259 7.24264
lfingers 7.12502
lthumb -6.43228 37.125
rfemur -19.4679 -19.6942 18.7888
rtibia 20.9957
rfoot -29.2443 11.6185
rtoes -14.1422
lfemur -14.3842 0.383424 -12.5269
ltibia 11.7912
lfoot 9.1195 8.87472
ltoes -6.52811
313
root 7.62935 21.5683 -49.8793 -176.814 -3.27803 179.406
lowerback 13.3024 -0.210545 -1.34488
upperback 3.01682 -0.871506 -1.19241
thorax -4.28325 -0.568256 -0.331572
lowerneck -8.35911 -4.86251 -16.5956
upperneck 15.5634 -9.32634 21.8649
head 7.95173 -4.32405 9.36137
rclavicle -3.18055e-015 -3.02153e-014
rhumerus 8.07213 7.3754 -41.3906
rradius 122.699
rwrist -11.6236
rhand -36.7693 -26.6999
rfingers 7.12502
rthumb -9.85208 -56.4494
lclavicle -3.18055e-015 -3.02153e-014
lhumerus -36.9587 -19.7514 53.1306
lradius 82.626
lwrist 0.995238
lhand -33.2259 7.24264
lfingers 7.12502
lthumb -6.43228 37.125
rfemur -20.4042 -19.6851 18.8053
rtibia 20.5717
rfoot -28.0786 12.2921
rtoes -14.7325
lfemur -15.3771 0.000271445 -12.5493
ltibia 11.5092
lfoot 9.12911 9.52454
ltoes -6.62738
314
root 7.63296 21.3888 -50.1386 -176.695 -3.02448 179.347
lowerback 13.3024 -0.210545 -1.34488
upperback 3.01682 -0.871506 -1.19241
thorax -4.28325 -0.568256 -0.331572
lowerneck -8.35911 -4.86251 -16.5956
upperneck 15.5634 -9.32634 21.8649
head 7.95173 -4.32405 9.36137
rclavicle -3.18055e-015 -3.02153e-014
rhumerus 8.07213 7.3754 -41.3906
rradius 122.699
rwrist -11.6236
rhand -36.7693 -26.6999
rfingers 7.12502
rthumb -9.85208 -56.4494
lclavicle -3.18055e-015 -3.02153e-014
lhumerus -36.9587 -19.7514 53.1306
lradius 82.626
lwrist 0.995238
lhand -33.2259 7.24264
lfingers 7.12502
lthumb -6.43228 37.125
rfemur -21.6504 -19.5069 19.0851
rtibia 20.3221
rfoot -27.505 12.5297
rtoes -13.8263
lfemur -16.6789 -0.120769 -12.4123
ltibia 11.7784
lfoot 8.71701 10.6709
ltoes -5.99045
315
root 7.63491 21.1708 -50.3941 -176.705 -2.90399 179.296
lowerback 13.3024 -0.210545 -1.34488
upperback 3.01682 -0.871506 -1.19241
thorax -4.28325 -0.568256 -0.331572
lowerneck -8.35911 -4.86251 -16.5956
upperneck 15.5634 -9.32634 21.8649
head 7.95173 -4.32405 9.36137
rclavicle -3.18055e-015 -3.02153e-014
rhumerus 8.07213 7.3754 -41.3906
rradius 122.699
rwrist -11.6236
rhand -36.7693 -26.6999
rfingers 7.12502
rthumb -9.85208 -56.4494
lclavicle -3.18055e-015 -3.02153e-014
lhumerus -36.9587 -19.7514 53.1306
lradius 82.626
lwrist 0.995238
lhand -33.2259 7.24264
lfingers 7.12502
lthumb -6.43228 37.125
rfemur -22.6331 -19.0901 19.1152
rtibia 20.2186
rfoot -26.7799 12.4239
rtoes -11.9033
lfemur -18.1599 -0.0560538 -12.3285
ltibia 12.6616
lfoot 8.24476 11.7932
ltoes -5.93094
316
root 7.64254 20.9371 -50.6481 -176.782 -2.7914 179.298
lowerback 13.3024 -0.210545 -1.34488
upperback 3.01682 -0.871506 -1.19241
thorax -4.28325 -0.568256 -0.331572
lowerneck -8.35911 -4.86251 -16.5956
upperneck 15.5634 -9.32634 21.8649
head 7.95173 -4.32405 9.36137
rclavicle -3.18055e-015 -3.02153e-014
rhumerus 8.07213 7.3754 -41.3906
rradius 122.699
rwrist -11.6236
rhand -36.7693 -26.6999
rfingers 7.12502
rthumb -9.85208 -56.4494
lclavicle -3.18055e-015 -3.02153e-014
lhumerus -36.9587 -19.7514 53.1306
lradius 82.626
lwrist 0.995238
lhand -33.2259 7.24264
lfingers 7.12502
lthumb -6.43228 37.125
rfemur -24.0056 -19.5332 19.5963
rtibia 20.6563
rfoot -26.8541 12.3668
rtoes -10.3291
lfemur -19.7985 0.347194 -12.2511
ltibia 14.0987
lfoot 7.56621 12.717
ltoes -5.74975
317
root 7.63103 20.6749 -50.9111 -177.049 -2.48263 179.028
lowerback 13.3024 -0.210545 -1.34488
upperback 3.01682 -0.871506 -1.19241
thorax -4.28325 -0.568256 -0.331572
lowerneck -8.35911 -4.86251 -16.5956
upperneck 15.5634 -9.32634 21.8649
head 7.95173 -4.32405 9.36137
rclavicle -3.18055e-015 -3.02153e-014
rhumerus 8.07213 7.3754 -41.3906
rradius 122.699
rwrist -11.6236
rhand -36.7693 -26.6999
rfingers 7.12502
rthumb -9.85208 -56.4494
lclavicle -3.18055e-015 -3.02153e-014
lhumerus -36.9587 -19.7514 53.1306
lradius 82.626
lwrist 0.995238
lhand -33.2259 7.24264
lfingers 7.12502
lthumb -6.43228 37.125
rfemur -25.1429 -19.2331 19.1442
rtibia 21.848
rfoot -27.2919 11.9404
rtoes -8.91042
lfemur -21.2089 1.12879 -12.6438
ltibia 15.7703
lfoot 6.85417 12.906
ltoes -5.14319
318
root 7.64762 20.3846 -51.1711 -177.459 -2.35799 179.297
lowerback 13.3024 -0.210545 -1.34488
upperback 3.01682 -0.871506 -1.19241
thorax -4.28325 -0.568256 -0.331572
lowerneck -8.35911 -4.86251 -16.5956
upperneck 15.5634 -9.32634 21.8649
head 7.95173 -4.32405 9.36137
rclavicle -3.18055e-015 -3.02153e-014
rhumerus 8.07213 7.3754 -41.3906
rradius 122.699
rwrist -11.6236
rhand -36.7693 -26.6999
rfingers 7.12502
rthumb -9.85208 -56.4494
lclavicle -3.18055e-015 -3.02153e-014
lhumerus -36.9587 -19.7514 53.1306
lradius 82.626
lwrist 0.995238
lhand -33.2259 7.24264
lfingers 7.12502
lthumb -6.43228 37.125
rfemur -26.3812 -18.904 19.5628
rtibia 24.078
rfoot -26.6208 10.9604
rtoes -8.50051
lfemur -22.4759 2.30142 -12.4325
ltibia 17.419
lfoot 6.73933 12.1071
ltoes -5.8891
319
root 7.66214 20.0823 -51.4229 -177.857 -2.34757 179.479
lowerback 13.3024 -0.210545 -1.34488
upperback 3.01682 -0.871506 -1.19241
thorax -4.28325 -0.568256 -0.331572
lowerneck -8.35911 -4.86251 -16.5956
upperneck 15.5634 -9.32634 21.8649
head 7.95173 -4.32405 9.36137
rclavicle -3.18055e-015 -3.02153e-014
rhumerus 8.07213 7.3754 -41.3906
rradius 122.699
rwrist -11.6236
rhand -36.7693 -26.6999
rfingers 7.12502
rthumb -9.85208 -56.4494
lclavicle -3.18055e-015 -3.02153e-014
lhumerus -36.9587 -19.7514 53.1306
lradius 82.626
lwrist 0.995238
lhand -33.2259 7.24264
lfingers 7.12502
lthumb -6.43228 37.125
rfemur -27.8668 -19.1379 20.0634
rtibia 26.7776
rfoot -26.4631 10.0449
rtoes -8.18831
lfemur -23.899 3.95307 -12.5203
ltibia 19.4623
lfoot 7.12943 9.91334
ltoes -5.55175
320
root 7.6761 19.7745 -51.6717 -178.252 -2.31915 179.647
lowerback 13.3024 -0.210545 -1.34488
upperback 3.01682 -0.871506 -1.19241
thorax -4.28325 -0.568256 -0.331572
lowerneck -8.35911 -4.86251 -16.5956
upperneck 15.5634 -9.32634 21.8649
head 7.95173 -4.32405 9.36137
rclavicle -3.18055e-015 -3.02153e-014
rhumerus 8.07213 7.3754 -41.3906
rradius 122.699
rwrist -11.6236
rhand -36.7693 -26.6999
rfingers 7.12502
rthumb -9.85208 -56.4494
lclavicle -3.18055e-015 -3.02153e-014
lhumerus -36.9587 -19.7514 53.1306
lradius 82.626
lwrist 0.995238
lhand -33.2259 7.24264
lfingers 7.12502
lthumb -6.43228 37.125
rfemur -29.6106 -20.2552 20.9637
rtibia 29.9293
rfoot -27.2719 9.14982
rtoes -8.74267
lfemur -25.5418 5.71265 -12.6694
ltibia 21.9353
lfoot 8.24324 6.25571
ltoes -7.81417
321
root 7.68616 19.4108 -51.9272 -178.688 -2.20438 179.966
lowerback 13.3024 -0.210545 -1.34488
upperback 3.01682 -0.871506 -1.19241
thorax -4.28325 -0.568256 -0.331572
lowerneck -8.35911 -4.86251 -16.5956
upperneck 15.5634 -9.32634 21.8649
head 7.95173 -4.32405 9.36137
rclavicle -3.18055e-015 -3.02153e-014
rhumerus 8.07213 7.3754 -41.3906
rradius 122.699
rwrist -11.6236
rhand -36.7693 -26.6999
rfingers 7.12502
rthumb -9.85208 -56.4494
lclavicle -3.18055e-015 -3.02153e-014
lhumerus -36.9587 -19.7514 53.1306
lradius 82.626
lwrist 0.995238
lhand -33.2259 7.24264
lfingers 7.12502
lthumb -6.43228 37.125
rfemur -31.2414 -20.1837 21.4433
rtibia 33.161
rfoot -27.4562 7.77818
rtoes -10.7769
lfemur -27.3326 7.6042 -12.7181
ltibia 24.8969
lfoot 9.04315 2.901
ltoes -9.58367
322
root 7.69458 19.0136 -52.1798 -179.081 -2.25035 180.268
lowerback 13.3024 -0.210545 -1.34488
upperback 3.01682 -0.871506 -1.19241
thorax -4.28325 -0.568256 -0.331572
lowerneck -8.35911 -4.86251 -16.5956
upperneck 15.5634 -9.32634 21.8649
head 7.95173 -4.32405 9.36137
rclavicle -3.18055e-015 -3.02153e-014
rhumerus 8.07213 7.3754 -41.3906
rradius 122.699
rwrist -11.6236
rhand -36.7693 -26.6999
rfingers 7.12502
rthumb -9.85208 -56.4494
lclavicle -3.18055e-015 -3.02153e-014
lhumerus -36.9587 -19.7514 53.1306
lradius 82.626
lwrist 0.995238
lhand -33.2259 7.24264
lfingers 7.12502
lthumb -6.43228 37.125
rfemur -32.6862 -19.7739 21.6557
rtibia 36.191
rfoot -28.6843 6.74189
rtoes -9.91331
lfemur -29.2038 9.20292 -12.7743
ltibia 27.7886
lfoot 9.92723 -0.187943
ltoes -10.786
